<svg id="Layer_2" data-name="Layer 2" xmlns="http://www.w3.org/2000/svg" viewBox="0 0 862.53 862.69"><defs><style>.cls-1{fill:#fff;}</style></defs><path class="cls-1" d="M1191.66,614c-10.52-4.89-24.61-11.32-35.34-15.74-6.31-2.32-14.08-5.1-21.36-7.6a220.72,220.72,0,0,1,27.51,12.13C1175.63,607.08,1179.16,608.25,1191.66,614Z" transform="translate(-568.74 -568.66)"/><path class="cls-1" d="M1125.35,587.39c3,1,6.24,2.06,9.61,3.22Q1130.21,588.89,1125.35,587.39Z" transform="translate(-568.74 -568.66)"/><path class="cls-1" d="M1151.09,599.52a190,190,0,0,0-41.95-16.76c-6.73-1.65-15.7-3.82-22.47-5.29-16.2-3.11-16.2-3.11-24.48-4.33l-.58-.08c14.19,2.07,27.68,7.74,40.27,16.7A451.45,451.45,0,0,1,1151.09,599.52Z" transform="translate(-568.74 -568.66)"/><path class="cls-1" d="M1029.89,583.31c19.88.78,39.29,2.31,57.66,4.54-11.23-9.06-23.29-14.56-36-16.14l-6.16-.7c-9-1-18.33-1.63-27.87-2C1021.9,569.75,1026.05,574.64,1029.89,583.31Z" transform="translate(-568.74 -568.66)"/><path class="cls-1" d="M953.39,584.06c20.16-1.2,40.57-1.59,60.66-1.21-1.74-8.61-3.63-13.44-5.62-14.11-11.54-.22-23.27,0-34.86.69C966.46,570.29,959.69,575.29,953.39,584.06Z" transform="translate(-568.74 -568.66)"/><path class="cls-1" d="M904,588.79c11-1.48,22.16-2.67,33.48-3.6,8.41-8.93,17.44-14.08,26.95-15.11-2.54.21-5.08.44-7.59.7-4.1.47-9.57,1.07-13.65,1.61-7,1.07-16.27,2.55-23.22,3.82a127.29,127.29,0,0,0-40,16.34Q891.39,590.49,904,588.79Z" transform="translate(-568.74 -568.66)"/><path class="cls-1" d="M866.48,595.19A154.38,154.38,0,0,1,905,579.38c-25.48,6.33-34,8.75-59.21,18l-22,9.86A300.43,300.43,0,0,1,866.48,595.19Z" transform="translate(-568.74 -568.66)"/><path class="cls-1" d="M817.27,609.71l-4.55,2.14,2.11-1C815.64,610.49,816.46,610.11,817.27,609.71Z" transform="translate(-568.74 -568.66)"/><path class="cls-1" d="M817.27,609.71l8.51-4C822.92,607,820.08,608.34,817.27,609.71Z" transform="translate(-568.74 -568.66)"/><path class="cls-1" d="M1232.49,658.74c19.88,6.06,37,13,50.64,20.72a98.7,98.7,0,0,1,20.47,14.87l-11.09-10.62c-26.65-23-40.67-35.06-72.86-54.4l-2-1.22-2.94-1.75-.57-.32c-10.28-5.84-23.23-11.08-38.25-15.65A248.11,248.11,0,0,1,1232.49,658.74Z" transform="translate(-568.74 -568.66)"/><path class="cls-1" d="M1032.29,589.33c3.72,10.26,7.12,24.23,10.14,41.55,28.5,1.12,56.32,3.32,82.66,6.51-9.07-17.8-19.25-32.3-30.36-43.15C1074.83,591.83,1053.82,590.17,1032.29,589.33Z" transform="translate(-568.74 -568.66)"/><path class="cls-1" d="M869.94,599.33c-15.52,11.45-29.77,26.51-42.46,44.8q16.39-3,34.47-5.39c15.72-2.12,31.77-3.83,48-5.17,6.66-17.52,14.14-31.71,22.27-42.21-12.25,1-24.37,2.3-36.25,3.9Q882.34,597.09,869.94,599.33Z" transform="translate(-568.74 -568.66)"/><path class="cls-1" d="M747,665.2c17.12-6.44,37.61-12.28,61.19-17.28,14.1-18.57,29.94-33.94,47.18-45.73a322.57,322.57,0,0,0-46.22,13.06A278.3,278.3,0,0,0,747,665.2Z" transform="translate(-568.74 -568.66)"/><path class="cls-1" d="M1152.15,652c10,19.36,18.63,41.92,25.65,67.29a792.65,792.65,0,0,1,86.29,17.11,319.71,319.71,0,0,0-38.2-69.78A676.56,676.56,0,0,0,1152.15,652Z" transform="translate(-568.74 -568.66)"/><path class="cls-1" d="M1044.29,642.33c2.86,18.73,5.31,40.73,7.3,65.65,34.86,1.37,68.89,4,101.1,8-6-25.24-13.43-47.63-22-66.8C1103.16,645.8,1074.08,643.5,1044.29,642.33Z" transform="translate(-568.74 -568.66)"/><path class="cls-1" d="M929.67,643.45a600.59,600.59,0,0,0-12.21,65.84c35.36-2.11,71.14-2.78,106.37-2.12-.89-24.88-2-46.85-3.27-65.53C990.46,641.07,959.88,641.65,929.67,643.45Z" transform="translate(-568.74 -568.66)"/><path class="cls-1" d="M788.71,724.18q20.06-3.61,42.16-6.6c19.22-2.58,38.85-4.68,58.7-6.31,4.47-25,9.94-47.21,16.25-66.13-17,1.4-33.73,3.19-50.16,5.4q-18.88,2.54-36,5.64C807.61,675.82,797.21,698.62,788.71,724.18Z" transform="translate(-568.74 -568.66)"/><path class="cls-1" d="M674.53,756.35a336.73,336.73,0,0,1,47.52-72.68c-16,7.05-28.43,14.68-36.95,22.64a371.42,371.42,0,0,0-53.81,76.53C641.26,773.52,655.79,764.6,674.53,756.35Z" transform="translate(-568.74 -568.66)"/><path class="cls-1" d="M643.05,759c-9.47,13.41-12.64,18.91-21.39,34.62l-2.15,4a49.21,49.21,0,0,1,4.84-7.29Q633,774.15,643.05,759Z" transform="translate(-568.74 -568.66)"/><path class="cls-1" d="M660.46,734.81c-.13.19-.25.36-.39.54.65-.83,1.29-1.68,1.94-2.5Z" transform="translate(-568.74 -568.66)"/><path class="cls-1" d="M643.05,759c4.14-5.86,9.49-13.24,17-23.63Q651.13,746.83,643.05,759Z" transform="translate(-568.74 -568.66)"/><path class="cls-1" d="M1168.13,819.55a694.12,694.12,0,0,0-11.81-87.2c-33-4-67.83-6.75-103.53-8.16,1.79,26.14,3.1,55.12,3.86,86.58C1095.08,812.28,1132.61,815.24,1168.13,819.55Z" transform="translate(-568.74 -568.66)"/><path class="cls-1" d="M915.43,725.54c-3,26.18-5.31,55.2-6.69,86.68,39-2.33,78.45-3.07,117.29-2.34-.32-31.45-.88-60.4-1.67-86.51C988.29,722.68,951.64,723.37,915.43,725.54Z" transform="translate(-568.74 -568.66)"/><path class="cls-1" d="M878,814.4c1.84-31.52,4.85-60.58,8.89-86.84-20.32,1.67-40.42,3.82-60.11,6.47q-22.62,3-43.17,6.76a522.78,522.78,0,0,0-16.82,87.85q22.11-4,46.49-7.28C834.45,818.51,856.09,816.19,878,814.4Z" transform="translate(-568.74 -568.66)"/><path class="cls-1" d="M593.16,893.32c11-10.27,27-20.11,47.68-29.21a395.51,395.51,0,0,1,25.8-90.38c-19.19,8.45-34.06,17.58-44.28,27.12A384.31,384.31,0,0,0,593.16,893.32Z" transform="translate(-568.74 -568.66)"/><path class="cls-1" d="M615.25,808.49a48.52,48.52,0,0,0-5.91,9.36c-5.06,12-12,27.91-16.41,40.14-5.47,17.82-11.91,41.55-16.22,60.22a46.19,46.19,0,0,1,8.8-16.67A385.23,385.23,0,0,1,615.25,808.49Z" transform="translate(-568.74 -568.66)"/><path class="cls-1" d="M1407.93,860.32c4.72,15.41,10,35.37,14,52.46A390.86,390.86,0,0,0,1407.93,860.32Z" transform="translate(-568.74 -568.66)"/><path class="cls-1" d="M1423.55,919.46c.21.92.42,1.83.62,2.72C1424,921.27,1423.79,920.37,1423.55,919.46Z" transform="translate(-568.74 -568.66)"/><path class="cls-1" d="M1423.55,919.46c-.5-2.16-1-4.4-1.57-6.68.28,1.41.56,2.82.82,4.23C1423.08,917.83,1423.33,918.64,1423.55,919.46Z" transform="translate(-568.74 -568.66)"/><path class="cls-1" d="M1354.27,785c-17-9.68-38.53-18.36-63.43-25.95A425.41,425.41,0,0,1,1313,848.34c26.82,8.17,50,17.52,68.3,27.94s30.69,21.23,37.4,32.11A387.32,387.32,0,0,0,1389,814.85C1382.77,804.75,1371.31,794.72,1354.27,785Z" transform="translate(-568.74 -568.66)"/><path class="cls-1" d="M1170.63,890.7q.06-26.21-1.22-50.77c-35.8-4.34-73.62-7.33-112.36-8.85q.39,24.46.35,50.71c0,17.35-.21,34.77-.53,52.16,38.74,1.52,76.57,4.51,112.37,8.85Q1170.58,916.78,1170.63,890.7Z" transform="translate(-568.74 -568.66)"/><path class="cls-1" d="M1026.3,880.89q0-26.22-.11-50.71c-39.15-.74-78.92,0-118.21,2.36q-.76,24.48-.82,50.72,0,26,.62,52.15c39.29-2.35,79.07-3.1,118.22-2.36Q1026.26,907,1026.3,880.89Z" transform="translate(-568.74 -568.66)"/><path class="cls-1" d="M763,899.94c0,17.35.55,34.72,1.71,52q22.29-4,46.86-7.34c21.37-2.87,43.19-5.2,65.25-7-.6-17.38-.88-34.79-.85-52.14s.39-34.4,1.05-50.73c-22.06,1.81-43.87,4.14-65.23,7q-24.56,3.3-46.86,7.34Q763,873.69,763,899.94Z" transform="translate(-568.74 -568.66)"/><path class="cls-1" d="M655.44,877.73a477.29,477.29,0,0,0-2.78,51.07,510.61,510.61,0,0,0,2.55,51.81c23.27-8.76,51.13-16.7,83.18-23.5q-1.93-25.92-1.91-52,0-26.22,2.13-50.89C706.56,861,678.71,869,655.44,877.73Z" transform="translate(-568.74 -568.66)"/><path class="cls-1" d="M586.63,965.63a421.58,421.58,0,0,0,3,51.53c11.09-10.36,27.23-20.27,48.06-29.45A486.81,486.81,0,0,1,635.05,936,460.66,460.66,0,0,1,638,884.84c-20.82,9.17-37,19.09-48.05,29.44A410.41,410.41,0,0,0,586.63,965.63Z" transform="translate(-568.74 -568.66)"/><path class="cls-1" d="M582,1025.45A416,416,0,0,1,578.85,974a404.35,404.35,0,0,1,3.35-51.42c-5.51,6.94-8.8,14-9.75,21.2-1.52,16.74-3.27,39.11-3.71,55.91.62,16.06,1.66,37.26,3.27,53.63C571.35,1043.89,574.74,1034.54,582,1025.45Z" transform="translate(-568.74 -568.66)"/><path class="cls-1" d="M1427.76,945.19a35.16,35.16,0,0,0-1.67-7,400,400,0,0,1,3.23,51.54A405.51,405.51,0,0,1,1426,1041a34,34,0,0,1,1.87,13.09c1.44-16.3,3-37.16,3.44-53C1430.62,984.31,1429.49,961.91,1427.76,945.19Z" transform="translate(-568.74 -568.66)"/><path class="cls-1" d="M1427.82,1054.13c-.07.84-.15,1.68-.22,2.49C1427.71,1055.79,1427.77,1055,1427.82,1054.13Z" transform="translate(-568.74 -568.66)"/><path class="cls-1" d="M1384.24,897.11c-18.5-10.51-41.82-19.93-68.84-28.17q2.38,24.76,2.36,51,0,26-2.52,51.87c28.33,9.35,42.55,14,68.85,28.17,18.5,10.51,30.93,21.4,37.69,32.35a408.82,408.82,0,0,0,3.33-51.4,400.45,400.45,0,0,0-3.19-51.48C1415.17,918.51,1402.73,907.62,1384.24,897.11Z" transform="translate(-568.74 -568.66)"/><path class="cls-1" d="M1290.75,987.46a873.2,873.2,0,0,0-95.17-18.88,961.47,961.47,0,0,1-14.1,102.4,811.17,811.17,0,0,1,88.39,17.53A645.52,645.52,0,0,0,1290.75,987.46Z" transform="translate(-568.74 -568.66)"/><path class="cls-1" d="M1167.88,964.89c-35.52-4.3-73.05-7.27-111.5-8.78-.87,34.87-2.29,69.51-4.19,103.29,35.7,1.4,70.56,4.15,103.56,8.15C1161.28,1034.06,1165.4,999.63,1167.88,964.89Z" transform="translate(-568.74 -568.66)"/><path class="cls-1" d="M1025.76,955.22c-38.85-.73-78.31,0-117.31,2.34,1.26,34.84,3.41,69.45,6.33,103.18,36.22-2.16,72.88-2.85,109-2.17C1024.64,1024.77,1025.32,990.1,1025.76,955.22Z" transform="translate(-568.74 -568.66)"/><path class="cls-1" d="M826.08,1069.23c19.69-2.65,39.79-4.8,60.13-6.46-3.93-33.66-6.82-68.22-8.52-103-21.89,1.8-43.54,4.11-64.74,7Q788.59,970,766.45,974a806.08,806.08,0,0,0,16.44,102Q803.43,1072.28,826.08,1069.23Z" transform="translate(-568.74 -568.66)"/><path class="cls-1" d="M758.68,1080.74a723.23,723.23,0,0,1-18.29-101.65c-31.81,6.75-59.45,14.63-82.54,23.32a543.33,543.33,0,0,0,24.17,100C703.46,1094.32,729.13,1087,758.68,1080.74Z" transform="translate(-568.74 -568.66)"/><path class="cls-1" d="M1391.9,1180c-.38.89-.75,1.78-1.12,2.64C1391.2,1181.77,1391.57,1180.89,1391.9,1180Z" transform="translate(-568.74 -568.66)"/><path class="cls-1" d="M1381.06,1021.64c-18.36-10.43-41.49-19.79-68.31-28a597.32,597.32,0,0,1-22.45,100.61c26.12,8.62,39.22,13,63.45,26h0c17,9.68,28.51,19.72,34.74,29.82a419.45,419.45,0,0,0,30-96.34C1411.76,1042.87,1399.41,1032.06,1381.06,1021.64Z" transform="translate(-568.74 -568.66)"/><path class="cls-1" d="M1177.17,1092a891.81,891.81,0,0,1-26,94.8,677.18,677.18,0,0,1,73.78,14.64,633.79,633.79,0,0,0,38.49-92.32A791.26,791.26,0,0,0,1177.17,1092Z" transform="translate(-568.74 -568.66)"/><path class="cls-1" d="M1019.58,1176.48c1.37-30.75,2.57-63.16,3.56-96.57-35.23-.67-71,0-106.4,2.12,3.25,33.33,7.26,65.63,11.9,96.26C958.87,1176.48,989.46,1175.91,1019.58,1176.48Z" transform="translate(-568.74 -568.66)"/><path class="cls-1" d="M854.61,1185.37c16.43-2.21,33.21-4,50.18-5.39-6.22-30.52-11.59-62.73-15.95-96-19.86,1.63-39.49,3.73-58.72,6.31q-22.1,3-42.17,6.61A762.17,762.17,0,0,0,818.56,1191Q835.71,1187.93,854.61,1185.37Z" transform="translate(-568.74 -568.66)"/><path class="cls-1" d="M798.35,1195a696.63,696.63,0,0,1-34-93.42c-28.85,6.12-53.92,13.26-74.86,21.15a552.26,552.26,0,0,0,44.92,90.34C752.27,1206.32,773.7,1200.21,798.35,1195Z" transform="translate(-568.74 -568.66)"/><path class="cls-1" d="M673.73,1129.1c-18.75,8.26-33.28,17.18-43.25,26.5A464.67,464.67,0,0,0,684,1241.17c8.53-8,20.95-15.6,37-22.65A528.63,528.63,0,0,1,673.73,1129.1Z" transform="translate(-568.74 -568.66)"/><path class="cls-1" d="M678,1247.54a450.92,450.92,0,0,1-54.5-84.48c-7.55,9.51-10.45,19.34-8.38,29.21a405.92,405.92,0,0,0,55.72,80.24C669.1,1264.07,671.58,1255.67,678,1247.54Z" transform="translate(-568.74 -568.66)"/><path class="cls-1" d="M629.17,1220l3.74,6.53c23.93,35.59,24.86,37,41.85,56.71l5.56,6.25a43.25,43.25,0,0,1-7.15-10.31A395.3,395.3,0,0,1,629.17,1220Z" transform="translate(-568.74 -568.66)"/><path class="cls-1" d="M629.17,1220l-9.66-16.84Q624.15,1211.73,629.17,1220Z" transform="translate(-568.74 -568.66)"/><path class="cls-1" d="M618.63,1201.65l.88,1.53c-.55-1-1.12-2-1.66-3.09C618.09,1200.61,618.36,1201.13,618.63,1201.65Z" transform="translate(-568.74 -568.66)"/><path class="cls-1" d="M1327.21,1259.54c2.9,8.44,1.51,16.88-3.88,25.07a388.82,388.82,0,0,0,37.94-49l14.82-24.4,4.53-8.25c4.55-8.49,5.44-17.17,2.45-25.85A430.86,430.86,0,0,1,1327.21,1259.54Z" transform="translate(-568.74 -568.66)"/><path class="cls-1" d="M1379.32,1169.27c-6.08-9.87-17.28-19.66-33.93-29.12s-37.63-17.94-62-25.35a595.5,595.5,0,0,1-41.39,91.49c20.79,6.33,38.73,13.58,53,21.67s23.8,16.46,29,24.89A443.83,443.83,0,0,0,1379.32,1169.27Z" transform="translate(-568.74 -568.66)"/><path class="cls-1" d="M1162.33,1297.85a538.36,538.36,0,0,0,52.89-78.16,647,647,0,0,0-70.58-14,670.74,670.74,0,0,1-35.63,81.59A488.76,488.76,0,0,1,1162.33,1297.85Z" transform="translate(-568.74 -568.66)"/><path class="cls-1" d="M1018.68,1195.77c-28.81-.54-58.08,0-87,1.74,4.92,29.89,10.44,58,16.47,83.59,21.85-1.31,44-1.73,65.73-1.31C1015.62,1254,1017.23,1225.79,1018.68,1195.77Z" transform="translate(-568.74 -568.66)"/><path class="cls-1" d="M894.64,1286.22c11.87-1.6,24-2.9,36.27-3.9-8.08-25.48-15.48-53.42-22-83.2-16.24,1.34-32.29,3.05-48,5.17q-18.08,2.43-34.49,5.4a600.85,600.85,0,0,0,42.24,80.61Q881,1288.07,894.64,1286.22Z" transform="translate(-568.74 -568.66)"/><path class="cls-1" d="M771.31,1326.54c6.17-5.76,15.14-11.27,26.72-16.37A498.17,498.17,0,0,1,733,1236c-15.33,6.75-27.21,14-35.37,21.67A470.68,470.68,0,0,0,771.31,1326.54Z" transform="translate(-568.74 -568.66)"/><path class="cls-1" d="M761.85,1349.19c-1.29-6.1.51-12.17,5.17-18a462.44,462.44,0,0,1-75.12-67.38c-6.17,7.77-8.55,15.81-6.85,23.88A419.55,419.55,0,0,0,761.85,1349.19Z" transform="translate(-568.74 -568.66)"/><path class="cls-1" d="M763.51,1354a405.16,405.16,0,0,1-76.26-60,44.1,44.1,0,0,0,9.15,12.27c8.83,8.14,20.52,19.12,29.72,26.85,12.63,9.7,29.76,22.25,43,31.16q6.31,4,12.81,7.78C772.49,1366.21,766.43,1360.13,763.51,1354Z" transform="translate(-568.74 -568.66)"/><path class="cls-1" d="M1217.71,1372.29l11.29-6.74c32-21.68,34.63-23.45,58.65-44.25l14.76-13.86c.7-.68,1.37-1.36,2-2a378.4,378.4,0,0,1-74.71,57.2A62,62,0,0,1,1217.71,1372.29Z" transform="translate(-568.74 -568.66)"/><path class="cls-1" d="M1217.71,1372.29l-5.39,3.22C1214.22,1374.45,1216,1373.38,1217.71,1372.29Z" transform="translate(-568.74 -568.66)"/><path class="cls-1" d="M1236.2,1339.82c2.1,6.1,1.1,12.2-2.8,18.12a395.58,395.58,0,0,0,75.9-58.7c5.16-7.84,6.49-15.92,3.71-24A446.5,446.5,0,0,1,1236.2,1339.82Z" transform="translate(-568.74 -568.66)"/><path class="cls-1" d="M1149.85,1312.5a449.32,449.32,0,0,0-49.25-9.77c-13.45,23.79-27.92,44.91-43.14,62.74a260.2,260.2,0,0,1,28.29,5.62A400.17,400.17,0,0,0,1149.85,1312.5Z" transform="translate(-568.74 -568.66)"/><path class="cls-1" d="M1007,1361.5c2-18.87,4-41,5.78-65.68-20.1-.38-40.52,0-60.7,1.21a610.26,610.26,0,0,0,20.05,65.17C983.68,1361.5,995.41,1361.28,1007,1361.5Z" transform="translate(-568.74 -568.66)"/><path class="cls-1" d="M922.12,1368.6c-20.15-17-39.27-37.37-57-60.43a297.22,297.22,0,0,0-42.7,12.06,421.48,421.48,0,0,0,75.2,55.3A172.1,172.1,0,0,1,922.12,1368.6Z" transform="translate(-568.74 -568.66)"/><path class="cls-1" d="M892.42,1377.63a431.48,431.48,0,0,1-79-53.75c-10.7,4.71-19,9.8-24.68,15.11a452.41,452.41,0,0,0,89.52,47.32C881.52,1383.26,886.28,1380.33,892.42,1377.63Z" transform="translate(-568.74 -568.66)"/><path class="cls-1" d="M784.77,1343.25c-4.31,5.42-6,11-4.78,16.66a429.27,429.27,0,0,0,93.23,38.42c-.68-3.23.27-6.45,2.75-9.57A454,454,0,0,1,784.77,1343.25Z" transform="translate(-568.74 -568.66)"/><path class="cls-1" d="M874.11,1400.9a416,416,0,0,1-92.58-36.52c2.7,5.63,8.29,11.25,17,16.7a337.51,337.51,0,0,0,85.36,29.42C878.87,1407.37,875.66,1404.14,874.11,1400.9Z" transform="translate(-568.74 -568.66)"/><path class="cls-1" d="M888.16,1412.94a311,311,0,0,1-66-20.08c7.15,3.23,14.56,6.5,20.8,9.07,23.79,8.72,24.71,9.06,39.53,13.34l.42.12a202.38,202.38,0,0,0,26.52,5.6A115.36,115.36,0,0,1,888.16,1412.94Z" transform="translate(-568.74 -568.66)"/><path class="cls-1" d="M822.19,1392.86c-4.4-2-8.69-4-12.56-5.74Q815.84,1390.12,822.19,1392.86Z" transform="translate(-568.74 -568.66)"/><path class="cls-1" d="M808.47,1386.58l1.16.54c-1.21-.59-2.43-1.18-3.63-1.79C806.81,1385.75,807.63,1386.17,808.47,1386.58Z" transform="translate(-568.74 -568.66)"/><path class="cls-1" d="M902.47,1420.37c3.48.81,7.16,1.66,10.2,2.29,16.27,3.12,16.27,3.12,24.59,4.35l5.67.8c.74.1,1.49.19,2.24.26a275.41,275.41,0,0,1-28.95-5.31Q909.26,1421.85,902.47,1420.37Z" transform="translate(-568.74 -568.66)"/><path class="cls-1" d="M902.47,1420.37l-5.16-1.19C899,1419.61,900.74,1420,902.47,1420.37Z" transform="translate(-568.74 -568.66)"/><path class="cls-1" d="M953.53,1429.09c1.26.13,2.52.27,3.79.39L953,1429Z" transform="translate(-568.74 -568.66)"/><path class="cls-1" d="M1087.67,1422.52c-3.13.66-5.47,1.14-7.61,1.55Q1083.88,1423.41,1087.67,1422.52Z" transform="translate(-568.74 -568.66)"/><path class="cls-1" d="M1051.93,1428.42c-4,.47-8.27.94-11.76,1.31C1044.13,1429.36,1048.05,1428.91,1051.93,1428.42Z" transform="translate(-568.74 -568.66)"/><path class="cls-1" d="M1054.84,1428.06c-1,.13-1.94.24-2.91.36l5.42-.65c13-2,17.25-2.64,22.71-3.7q-3.7.65-7.45,1.08Q1064.3,1426.79,1054.84,1428.06Z" transform="translate(-568.74 -568.66)"/><path class="cls-1" d="M1080.1,1423.56a160.31,160.31,0,0,0,22.53-4.45c21.89-5.8,31.19-8.4,52.91-16.65a272.43,272.43,0,0,1-51.93,14A155.65,155.65,0,0,1,1080.1,1423.56Z" transform="translate(-568.74 -568.66)"/><path class="cls-1" d="M1158.48,1401.35l4.16-1.68q-3.51,1.44-7.07,2.78Z" transform="translate(-568.74 -568.66)"/><path class="cls-1" d="M1108.47,1414.26a298.71,298.71,0,0,0,80.62-26.48l.42-.2c10-4.79,17.58-9.94,22.55-15.29a387.63,387.63,0,0,1-90.56,33.15C1118.63,1408.53,1114.25,1411.5,1108.47,1414.26Z" transform="translate(-568.74 -568.66)"/><path class="cls-1" d="M1047.68,1376.35c-15.52,16.38-31.75,29.34-48.45,38.24,28-9.83,43.48-15.24,72-33.57A215.18,215.18,0,0,0,1047.68,1376.35Z" transform="translate(-568.74 -568.66)"/><path class="cls-1" d="M976.63,1373.62c7.23,17.26,14.8,31.13,22.6,41,2.21-10,4.36-24.1,6.43-41.55C996.05,1372.86,986.28,1373,976.63,1373.62Z" transform="translate(-568.74 -568.66)"/><path class="cls-1" d="M953,1375.88c-4,.54-7.86,1.15-11.5,1.8,18.47,16,37.82,28.47,57.73,36.91-11.77-12.5-18.26-19.38-30.21-40.43C963.6,1374.6,958.25,1375.18,953,1375.88Z" transform="translate(-568.74 -568.66)"/><path class="cls-1" d="M914.62,1384.72a339.17,339.17,0,0,0,84.61,29.87c-22.14-8-43.64-20.09-64.18-35.64A143.1,143.1,0,0,0,914.62,1384.72Z" transform="translate(-568.74 -568.66)"/><path class="cls-1" d="M898.53,1393.69a428.85,428.85,0,0,0,100.7,20.9,361.84,361.84,0,0,1-88.9-28.13A42.67,42.67,0,0,0,898.53,1393.69Z" transform="translate(-568.74 -568.66)"/><path class="cls-1" d="M894.35,1403.7a444.08,444.08,0,0,0,104.88,10.89,439.12,439.12,0,0,1-102.59-18.86C894.58,1398.32,893.79,1401,894.35,1403.7Z" transform="translate(-568.74 -568.66)"/><path class="cls-1" d="M895.09,1405.83c1.29,2.69,4,5.38,8.12,8a366.53,366.53,0,0,0,96,.77A435,435,0,0,1,895.09,1405.83Z" transform="translate(-568.74 -568.66)"/><path class="cls-1" d="M906.79,1415.85a96.42,96.42,0,0,0,17.72,6.7,226.12,226.12,0,0,0,74.72-8A339.48,339.48,0,0,1,906.79,1415.85Z" transform="translate(-568.74 -568.66)"/><path class="cls-1" d="M930.14,1424a232.35,232.35,0,0,0,24.09,4.43c14.4-.3,29.48-4.79,45-13.86C975.4,1422.13,952.25,1425.14,930.14,1424Z" transform="translate(-568.74 -568.66)"/><path class="cls-1" d="M989.06,1431.19c3.25-1.18,6.65-6.59,10.17-16.6-13.12,9.36-25.86,14.13-38,14.7C970.11,1430.27,979.49,1430.91,989.06,1431.19Z" transform="translate(-568.74 -568.66)"/><path class="cls-1" d="M1025.7,1430.45c-8.49-.94-17.35-6.1-26.47-15.86-.89,10.06-1.75,15.52-2.56,16.74C1006.32,1431.42,1016.08,1431.13,1025.7,1430.45Z" transform="translate(-568.74 -568.66)"/><path class="cls-1" d="M1045.5,1428.44q7.88-1.07,14.8-2.42c-19.56.48-40-3.2-61.07-11.43,11.73,9.54,23.14,14.5,34,15.24C1037.4,1429.44,1041.49,1429,1045.5,1428.44Z" transform="translate(-568.74 -568.66)"/><path class="cls-1" d="M1066.53,1424.69a128.85,128.85,0,0,0,19.56-6c-32.8,1.7-50.88,2.64-86.86-4.15C1022.43,1422.36,1045,1425.6,1066.53,1424.69Z" transform="translate(-568.74 -568.66)"/><path class="cls-1" d="M1090.14,1417c4.81-2.3,8.46-4.77,10.85-7.34a412.32,412.32,0,0,1-101.76,5A328.49,328.49,0,0,0,1090.14,1417Z" transform="translate(-568.74 -568.66)"/><path class="cls-1" d="M1102.62,1407.56a8.81,8.81,0,0,0,1.24-8,448,448,0,0,1-104.63,15A427.5,427.5,0,0,0,1102.62,1407.56Z" transform="translate(-568.74 -568.66)"/><path class="cls-1" d="M1093.58,1389.48a84.08,84.08,0,0,0-16.9-6.92,302.65,302.65,0,0,1-77.45,32c40.35-3.44,62.57-5.33,103.6-17.17C1101.17,1394.73,1098.12,1392.06,1093.58,1389.48Z" transform="translate(-568.74 -568.66)"/></svg>