<svg id="Calque_1" data-name="Calque 1" xmlns="http://www.w3.org/2000/svg" viewBox="0 0 1184.62 475.35"><defs><style>.cls-1{fill:none;stroke:#fff;stroke-linecap:round;stroke-width:10px;}</style></defs><circle class="cls-1" cx="237.68" cy="237.68" r="232.68"/><path class="cls-1" d="M365.74,159a230.86,230.86,0,1,1-90.18,18.2A230.22,230.22,0,0,1,365.74,159m0-1C237.24,158,133.06,262.2,133.06,390.7S237.24,623.38,365.74,623.38,598.41,519.21,598.41,390.7,494.24,158,365.74,158Z" transform="translate(-128.06 -153.03)"/><path class="cls-1" d="M484.38,235.93a194.75,194.75,0,0,1,75.35,134.7" transform="translate(-128.06 -153.03)"/><path class="cls-1" d="M365.74,585.71c-107.7,0-195-87.3-195-195" transform="translate(-128.06 -153.03)"/><path class="cls-1" d="M477.35,270.52a178.44,178.44,0,0,1,44.25,76.19" transform="translate(-128.06 -153.03)"/><path class="cls-1" d="M197.45,400.3A178.67,178.67,0,0,0,359.91,556.49" transform="translate(-128.06 -153.03)"/><path class="cls-1" d="M469.74,244.28" transform="translate(-128.06 -153.03)"/><path class="cls-1" d="M365.74,297.76a92.95,92.95,0,1,0,92.95,92.94A92.95,92.95,0,0,0,365.74,297.76Zm0,106.92a15.19,15.19,0,1,1,15.19-15.19A15.19,15.19,0,0,1,365.74,404.68Z" transform="translate(-128.06 -153.03)"/><path class="cls-1" d="M365.74,298.76a91.95,91.95,0,1,1-91.95,91.94,92,92,0,0,1,91.95-91.94m0,106.92a16.19,16.19,0,1,0-16.19-16.19,16.2,16.2,0,0,0,16.19,16.19m0-107.92a92.95,92.95,0,1,0,92.95,92.94,92.95,92.95,0,0,0-92.95-92.94Zm0,106.92a15.19,15.19,0,1,1,15.19-15.19,15.19,15.19,0,0,1-15.19,15.19Z" transform="translate(-128.06 -153.03)"/><path class="cls-1" d="M630.23,353.78,631.81,343c.24-2.35,1.29-3.52,3.17-3.52h19.91c1.76,0,2.53,1.17,2.29,3.52l-1,6.83c-.24,1.47,0,2.2.88,2.2h68.53a1,1,0,0,0,1.06-.77c.11-.51.23-1.06.35-1.65.11-1,.26-2.17.44-3.42a20.34,20.34,0,0,0,.18-3.74,8.48,8.48,0,0,0-.8-3.3,5.15,5.15,0,0,0-2.46-2.31L657,305.33a24.46,24.46,0,0,1-7-6.16,33.36,33.36,0,0,1-5.11-9,45.8,45.8,0,0,1-2.64-10.79,41.43,41.43,0,0,1,.17-11.45l.71-5.51A45.88,45.88,0,0,1,647,249.62a40,40,0,0,1,7-10.35,32.32,32.32,0,0,1,9.25-6.94,23.52,23.52,0,0,1,10.57-2.53h81.75a20.43,20.43,0,0,1,9.43,2.2,21.85,21.85,0,0,1,7.39,6.17,24.44,24.44,0,0,1,4.41,9.47,32.94,32.94,0,0,1,.44,12.11l-3.7,26.2a4.28,4.28,0,0,1-1.06,2.32,2.73,2.73,0,0,1-2.11,1H750.38a2,2,0,0,1-1.85-1,3.41,3.41,0,0,1-.44-2.32l.88-5.72c.23-2.2-.53-3.31-2.29-3.31H700.35c-1.53,0-2.53.89-3,2.65s-.06,3,1.23,3.74l52,24.23a21.87,21.87,0,0,1,7,6.16,39.39,39.39,0,0,1,5,8.92,41.55,41.55,0,0,1,2.73,10.68,43.52,43.52,0,0,1-.17,11.67l-.88,6.39A44.78,44.78,0,0,1,760.42,364a40.54,40.54,0,0,1-7,10.24,32.79,32.79,0,0,1-9.16,6.94,23,23,0,0,1-10.48,2.53H651.9a20.56,20.56,0,0,1-9.34-2.2,20.8,20.8,0,0,1-7.4-6.17,26,26,0,0,1-4.4-9.47A31.41,31.41,0,0,1,630.23,353.78Z" transform="translate(-128.06 -153.03)"/><path class="cls-1" d="M764.12,380.43l20.79-147.55a3.9,3.9,0,0,1,1.06-2.42,2.66,2.66,0,0,1,1.93-.88h32.42a2.15,2.15,0,0,1,1.76.88,2.73,2.73,0,0,1,.35,2.42l-5.28,37.44c-.24,2.06.47,3.08,2.11,3.08l68.18.22A18.85,18.85,0,0,1,897,276a20.62,20.62,0,0,1,7,6.72,28.17,28.17,0,0,1,4,10,37.44,37.44,0,0,1,.26,12.33l-10.57,75.32a4.31,4.31,0,0,1-1,2.31,2.59,2.59,0,0,1-1.94,1H874.41a1.89,1.89,0,0,1-1.68-1,3.38,3.38,0,0,1-.44-2.31l8.11-56.82q.35-3.08-2.29-3.08H812.92c-1.76,0-2.88,1.18-3.35,3.52l-7.92,56.38a4.32,4.32,0,0,1-1.06,2.31,2.57,2.57,0,0,1-1.94,1H766.23a2.1,2.1,0,0,1-1.76-1A2.61,2.61,0,0,1,764.12,380.43Z" transform="translate(-128.06 -153.03)"/><path class="cls-1" d="M904.89,351.36l7-50.43a34.65,34.65,0,0,1,3.61-11.34,33.19,33.19,0,0,1,6.61-8.81,28.66,28.66,0,0,1,8.63-5.62,25,25,0,0,1,9.69-2h83.33a19.05,19.05,0,0,1,9.78,2.53,22,22,0,0,1,7.23,6.94,29.78,29.78,0,0,1,4.14,10.24,35,35,0,0,1,.17,12.66l-6.34,45.81a46,46,0,0,1-3.88,12.55,40,40,0,0,1-7,10.35,32.6,32.6,0,0,1-9.25,6.94,23.16,23.16,0,0,1-10.4,2.53H926.2a19.1,19.1,0,0,1-9.69-2.53,21.62,21.62,0,0,1-7.31-6.94,28.1,28.1,0,0,1-4.05-10.35A38.6,38.6,0,0,1,904.89,351.36Zm41.75.66H1009a4.21,4.21,0,0,0,3.17-1.54,7.13,7.13,0,0,0,1.76-3.74l3-21.15a5.35,5.35,0,0,0-.61-3.85,3.3,3.3,0,0,0-2.91-1.43H951.22a4.56,4.56,0,0,0-3.35,1.43,6.68,6.68,0,0,0-1.76,3.85l-2.82,21.15a5.27,5.27,0,0,0,.62,3.74A3,3,0,0,0,946.64,352Z" transform="translate(-128.06 -153.03)"/><path class="cls-1" d="M1040.89,351.36l7-50.43a34.65,34.65,0,0,1,3.61-11.34,33,33,0,0,1,6.61-8.81,28.66,28.66,0,0,1,8.63-5.62,25,25,0,0,1,9.69-2h83.33a19.05,19.05,0,0,1,9.78,2.53,21.82,21.82,0,0,1,7.22,6.94,29.4,29.4,0,0,1,4.14,10.24,35.18,35.18,0,0,1,.18,12.66l-6.34,45.81a46.33,46.33,0,0,1-3.88,12.55,39.79,39.79,0,0,1-7,10.35,32.32,32.32,0,0,1-9.25,6.94,23.12,23.12,0,0,1-10.39,2.53h-82.1a19.1,19.1,0,0,1-9.69-2.53,21.53,21.53,0,0,1-7.31-6.94,28.1,28.1,0,0,1-4-10.35A38.6,38.6,0,0,1,1040.89,351.36Zm41.76.66H1145a4.23,4.23,0,0,0,3.18-1.54,7.2,7.2,0,0,0,1.76-3.74l3-21.15a5.35,5.35,0,0,0-.61-3.85,3.3,3.3,0,0,0-2.91-1.43h-62.19a4.55,4.55,0,0,0-3.35,1.43,6.68,6.68,0,0,0-1.76,3.85l-2.82,21.15a5.22,5.22,0,0,0,.62,3.74A3,3,0,0,0,1082.65,352Z" transform="translate(-128.06 -153.03)"/><path class="cls-1" d="M1174.61,378.45l20.44-144.25a6.31,6.31,0,0,1,1.58-3.3,3.78,3.78,0,0,1,2.82-1.32h30a3,3,0,0,1,2.56,1.32,4.13,4.13,0,0,1,.61,3.3L1223.41,299a4.46,4.46,0,0,0,.62,3.41,2.94,2.94,0,0,0,2.55,1.43h27.84a4,4,0,0,0,3.17-1.76L1278,275.6a4,4,0,0,1,3.17-1.76h23.25c1.65,0,2.68.92,3.09,2.75a5.9,5.9,0,0,1-1.32,5.18l-35.94,44a5.34,5.34,0,0,0-.88,5.95L1293,376a5.21,5.21,0,0,1-.17,5.07,4.31,4.31,0,0,1-3.88,2.64H1265.7a2.82,2.82,0,0,1-2.65-1.76l-15-29.51a3.2,3.2,0,0,0-2.82-1.76h-25.37a3.66,3.66,0,0,0-2.82,1.43,7,7,0,0,0-1.58,3.41l-3.18,22.91a6.58,6.58,0,0,1-1.67,3.41,3.89,3.89,0,0,1-2.91,1.43h-30a2.94,2.94,0,0,1-2.55-1.43A4.46,4.46,0,0,1,1174.61,378.45Z" transform="translate(-128.06 -153.03)"/><path class="cls-1" d="M633.05,531.18l12.68-89.41a40.62,40.62,0,0,1,3.79-12.55,43.12,43.12,0,0,1,7-10.35,31.15,31.15,0,0,1,9.16-6.94,23.62,23.62,0,0,1,10.57-2.53h82.1a19.2,19.2,0,0,1,9.69,2.53,21.62,21.62,0,0,1,7.31,6.94,28.24,28.24,0,0,1,4.05,10.35,39.16,39.16,0,0,1,.27,12.55l-12.69,89.41a40.54,40.54,0,0,1-3.79,12.55,41.57,41.57,0,0,1-7,10.35,32.41,32.41,0,0,1-9.25,6.94,23.16,23.16,0,0,1-10.4,2.53h-82.1a19.1,19.1,0,0,1-9.69-2.53,21.52,21.52,0,0,1-7.31-6.94,28.1,28.1,0,0,1-4.05-10.35A38.88,38.88,0,0,1,633.05,531.18Zm41.75.66h62.54a4.2,4.2,0,0,0,3.17-1.54,7.07,7.07,0,0,0,1.77-3.74l9.16-65a4.65,4.65,0,0,0-.71-3.63,3.33,3.33,0,0,0-2.82-1.43H685.37a4.09,4.09,0,0,0-3.08,1.43,6.88,6.88,0,0,0-1.68,3.63l-9.33,65a5,5,0,0,0,.7,3.74A3.26,3.26,0,0,0,674.8,531.84Z" transform="translate(-128.06 -153.03)"/><path class="cls-1" d="M767.82,558.93l11.1-78.4a33.66,33.66,0,0,1,3.61-11.45,31.81,31.81,0,0,1,6.78-8.7,30.64,30.64,0,0,1,8.9-5.61,25.92,25.92,0,0,1,10-2h82.62a19.08,19.08,0,0,1,9.69,2.54,21.27,21.27,0,0,1,7.31,7,29.3,29.3,0,0,1,4.05,10.46,38.66,38.66,0,0,1,.27,12.56l-10.4,73.55a6.31,6.31,0,0,1-1.58,3.3,3.76,3.76,0,0,1-2.82,1.32h-18a2.81,2.81,0,0,1-2.47-1.32,4.38,4.38,0,0,1-.52-3.3l7.57-54.39a4.26,4.26,0,0,0-.53-3.2,2.76,2.76,0,0,0-2.46-1.43H817.5a3.67,3.67,0,0,0-2.82,1.43,6.89,6.89,0,0,0-1.58,3.2l-7.58,54.39a6,6,0,0,1-1.67,3.3,3.88,3.88,0,0,1-2.73,1.32h-30.3a2.81,2.81,0,0,1-2.47-1.32A4.34,4.34,0,0,1,767.82,558.93Z" transform="translate(-128.06 -153.03)"/><path class="cls-1" d="M908.94,531.18l6.87-48.89a40.46,40.46,0,0,1,3.34-11.67,32,32,0,0,1,6.17-9,29.43,29.43,0,0,1,8.37-5.94,22.62,22.62,0,0,1,9.78-2.21h84.21a21,21,0,0,1,16.91,8.37,25.3,25.3,0,0,1,4.32,9.58,33.63,33.63,0,0,1,.44,12.22l-6.87,49.55q-.7,3.52-3.35,3.53h-92c-.95,0-1.53.7-1.77,2.09s.24,2.09,1.41,2.09h78.93a2.26,2.26,0,0,1,1.94,1,3,3,0,0,1,.35,2.54L1025.92,560q-.7,3.53-3.35,3.52H930.25a18.89,18.89,0,0,1-9.77-2.53,21.33,21.33,0,0,1-7.23-7,30.41,30.41,0,0,1-4.14-10.34A33.88,33.88,0,0,1,908.94,531.18Zm43.69-23.34h65.18a2.59,2.59,0,0,0,2.21-1.1,6.27,6.27,0,0,0,1.05-2.53,4,4,0,0,0-.26-2.54,2,2,0,0,0-1.94-1.1H953.68a2.81,2.81,0,0,0-2.29,1.1,5,5,0,0,0-1,2.54,4.48,4.48,0,0,0,.35,2.53A2,2,0,0,0,952.63,507.84Z" transform="translate(-128.06 -153.03)"/><path class="cls-1" d="M1082.47,451.24h79.63a20.93,20.93,0,0,1,16.91,8.37,26.29,26.29,0,0,1,4.41,9.47,31.83,31.83,0,0,1,.53,12.11l-2.82,20.48c-.24,1.91-1.18,2.87-2.82,2.87h-20.79a1.8,1.8,0,0,1-1.5-.89,2.12,2.12,0,0,1-.26-2l.35-3.52a2.15,2.15,0,0,0-.26-2,2,2,0,0,0-1.68-.88h-59.72c-.59,0-.94.33-1.06,1s.06,1.06.53,1.21l63.25,10.57a17.68,17.68,0,0,1,10.92,5.72,24.42,24.42,0,0,1,5.46,10.8,33.23,33.23,0,0,1,.27,13,35.8,35.8,0,0,1-4.67,12.66,29.6,29.6,0,0,1-9.25,9.58,24,24,0,0,1-13.48,3.74h-82.1a20.68,20.68,0,0,1-16.74-8.47,27.66,27.66,0,0,1-4.4-9.58,31.67,31.67,0,0,1-.53-12.12l.35-2c.24-1.9,1.12-2.86,2.65-2.86h33.12c1.52,0,2.17,1,1.94,2.86l-1.06,6.61c-.24,1.91.41,2.86,1.94,2.86h58.84a1.11,1.11,0,0,0,1.15-.88.77.77,0,0,0-.62-1.1l-73.47-18.28a21.14,21.14,0,0,1-12.33-7.93,30.62,30.62,0,0,1-5.64-13.65,42.85,42.85,0,0,1,.62-16.08,49.85,49.85,0,0,1,6.17-15.41,38.13,38.13,0,0,1,11-11.67A26,26,0,0,1,1082.47,451.24Z" transform="translate(-128.06 -153.03)"/></svg>