<svg id="Calque_1" data-name="Calque 1" xmlns="http://www.w3.org/2000/svg" viewBox="0 0 1189.62 487.54"><defs><style>.cls-1,.cls-2{fill:none;stroke:#fff;stroke-linecap:round;stroke-width:10px;}.cls-2{font-size:176.18px;font-family:CyberAngel-Regular, Cyber Angel;letter-spacing:-0.08em;}</style></defs><circle class="cls-1" cx="237.68" cy="237.68" r="232.68"/><path class="cls-1" d="M365.74,159a230.86,230.86,0,1,1-90.18,18.2A230.22,230.22,0,0,1,365.74,159m0-1C237.24,158,133.06,262.2,133.06,390.7S237.24,623.38,365.74,623.38,598.41,519.21,598.41,390.7,494.24,158,365.74,158Z" transform="translate(-128.06 -153.03)"/><path class="cls-1" d="M484.38,235.93a194.75,194.75,0,0,1,75.35,134.7" transform="translate(-128.06 -153.03)"/><path class="cls-1" d="M365.74,585.71c-107.7,0-195-87.3-195-195" transform="translate(-128.06 -153.03)"/><path class="cls-1" d="M477.35,270.52a178.44,178.44,0,0,1,44.25,76.19" transform="translate(-128.06 -153.03)"/><path class="cls-1" d="M197.45,400.3A178.67,178.67,0,0,0,359.91,556.49" transform="translate(-128.06 -153.03)"/><path class="cls-1" d="M469.74,244.28" transform="translate(-128.06 -153.03)"/><path class="cls-1" d="M365.74,297.76a92.95,92.95,0,1,0,92.95,92.94A92.95,92.95,0,0,0,365.74,297.76Zm0,106.92a15.19,15.19,0,1,1,15.19-15.19A15.19,15.19,0,0,1,365.74,404.68Z" transform="translate(-128.06 -153.03)"/><path class="cls-1" d="M365.74,298.76a91.95,91.95,0,1,1-91.95,91.94,92,92,0,0,1,91.95-91.94m0,106.92a16.19,16.19,0,1,0-16.19-16.19,16.2,16.2,0,0,0,16.19,16.19m0-107.92a92.95,92.95,0,1,0,92.95,92.94,92.95,92.95,0,0,0-92.95-92.94Zm0,106.92a15.19,15.19,0,1,1,15.19-15.19,15.19,15.19,0,0,1-15.19,15.19Z" transform="translate(-128.06 -153.03)"/><text class="cls-2" transform="translate(491.06 230.7) scale(1 1.25)">Shook<tspan x="0" y="143.86">Ones</tspan></text></svg>