<svg id="Calque_1" data-name="Calque 1" xmlns="http://www.w3.org/2000/svg" xmlns:xlink="http://www.w3.org/1999/xlink" viewBox="0 0 1308.16 571.21"><defs><style>.cls-1{fill:#fff;stroke-miterlimit:10;stroke-width:36px;}.cls-1,.cls-3,.cls-5{stroke:#fff;}.cls-2{fill:url(#Dégradé_sans_nom_103);}.cls-3{font-size:176.18px;stroke-width:88px;font-family:CyberAngel-Regular, Cyber Angel;letter-spacing:-0.08em;}.cls-3,.cls-4,.cls-5{fill:none;}.cls-4{stroke-linecap:round;stroke-width:15px;stroke:url(#Dégradé_sans_nom_74);}.cls-5{stroke-width:9px;}</style><linearGradient id="Dégradé_sans_nom_103" x1="257.02" y1="386.45" x2="442.92" y2="386.45" gradientUnits="userSpaceOnUse"><stop offset="0" stop-color="#ffbc58"/><stop offset="1" stop-color="#ffb058"/></linearGradient><linearGradient id="Dégradé_sans_nom_74" x1="50.56" y1="284.45" x2="1264.16" y2="284.45" gradientUnits="userSpaceOnUse"><stop offset="0" stop-color="#ffd620"/><stop offset="0.2" stop-color="#ffb058"/><stop offset="0.45" stop-color="#ffb06b"/><stop offset="0.79" stop-color="#dd436d"/><stop offset="1" stop-color="#d43a3a"/></linearGradient></defs><ellipse class="cls-1" cx="289.56" cy="285.6" rx="271.56" ry="267.6"/><path class="cls-2" d="M350,293.5a92.95,92.95,0,1,0,92.95,92.95A92.95,92.95,0,0,0,350,293.5Zm0,106.92a15.19,15.19,0,1,1,15.19-15.19A15.19,15.19,0,0,1,350,400.42Z" transform="translate(-66.74 -102)"/><text class="cls-3" transform="translate(531.6 273.28) scale(1 1.25)">Shook<tspan x="0" y="143.86">Ones</tspan></text><circle class="cls-4" cx="283.24" cy="284.45" r="232.68"/><path class="cls-4" d="M350,154.77A231,231,0,1,1,259.79,173,230.23,230.23,0,0,1,350,154.77m0-1c-128.5,0-232.67,104.17-232.67,232.68S221.47,619.12,350,619.12,582.65,515,582.65,386.45,478.48,153.77,350,153.77Z" transform="translate(-66.74 -102)"/><path class="cls-4" d="M468.62,231.67A194.76,194.76,0,0,1,544,366.37" transform="translate(-66.74 -102)"/><path class="cls-4" d="M350,581.46c-107.7,0-195-87.31-195-195" transform="translate(-66.74 -102)"/><path class="cls-4" d="M461.58,266.26a178.49,178.49,0,0,1,44.26,76.2" transform="translate(-66.74 -102)"/><path class="cls-4" d="M181.68,396A178.67,178.67,0,0,0,344.14,552.23" transform="translate(-66.74 -102)"/><path class="cls-4" d="M454,240" transform="translate(-66.74 -102)"/><path class="cls-4" d="M350,293.5a92.95,92.95,0,1,0,92.95,92.95A92.95,92.95,0,0,0,350,293.5Zm0,106.92a15.19,15.19,0,1,1,15.19-15.19A15.19,15.19,0,0,1,350,400.42Z" transform="translate(-66.74 -102)"/><path class="cls-4" d="M350,294.5a91.95,91.95,0,1,1-92,91.95,92.06,92.06,0,0,1,92-91.95m0,106.92a16.19,16.19,0,1,0-16.19-16.19A16.2,16.2,0,0,0,350,401.42m0-107.92a92.95,92.95,0,1,0,92.95,92.95A92.95,92.95,0,0,0,350,293.5Zm0,106.92a15.19,15.19,0,1,1,15.19-15.19A15.19,15.19,0,0,1,350,400.42Z" transform="translate(-66.74 -102)"/><path class="cls-4" d="M609.54,345l1.59-10.79c.23-2.34,1.29-3.52,3.17-3.52h19.91c1.76,0,2.52,1.18,2.29,3.52L635.44,341c-.23,1.47.06,2.2.88,2.2h68.54a1,1,0,0,0,1-.77c.12-.51.24-1.06.35-1.65.12-1,.27-2.16.45-3.41a20.49,20.49,0,0,0,.17-3.75,8.35,8.35,0,0,0-.79-3.3,5.27,5.27,0,0,0-2.47-2.31l-67.3-31.49a24.75,24.75,0,0,1-7-6.17,33.21,33.21,0,0,1-5.11-9,45.33,45.33,0,0,1-2.65-10.79,41.44,41.44,0,0,1,.18-11.45l.7-5.51a46.23,46.23,0,0,1,3.88-12.77,40.13,40.13,0,0,1,7-10.35,32.32,32.32,0,0,1,9.25-6.94A23.62,23.62,0,0,1,653.06,221H734.8a20.55,20.55,0,0,1,9.43,2.2,22,22,0,0,1,7.4,6.17,24.73,24.73,0,0,1,4.41,9.47,33,33,0,0,1,.43,12.11l-3.69,26.21a4.32,4.32,0,0,1-1.06,2.31,2.75,2.75,0,0,1-2.12,1H729.7a2,2,0,0,1-1.85-1,3.33,3.33,0,0,1-.44-2.31l.88-5.73q.35-3.3-2.29-3.3H679.66c-1.53,0-2.53.88-3,2.64s-.06,3,1.23,3.74l52,24.23a22,22,0,0,1,7,6.16,40,40,0,0,1,5,8.92,41.65,41.65,0,0,1,2.73,10.68,43.2,43.2,0,0,1-.18,11.68l-.88,6.38a44.35,44.35,0,0,1-3.87,12.66,40.36,40.36,0,0,1-7,10.24,32.74,32.74,0,0,1-9.16,6.94,23,23,0,0,1-10.49,2.53H631.21a21,21,0,0,1-16.73-8.36,26.37,26.37,0,0,1-4.41-9.47A31.67,31.67,0,0,1,609.54,345Z" transform="translate(-66.74 -102)"/><path class="cls-4" d="M743.44,371.6l20.78-147.55a4,4,0,0,1,1.06-2.42,2.72,2.72,0,0,1,1.94-.88h32.42a2.19,2.19,0,0,1,1.76.88,2.76,2.76,0,0,1,.35,2.42l-5.29,37.44c-.23,2.06.47,3.08,2.12,3.08l68.18.22a18.75,18.75,0,0,1,9.51,2.43,20.61,20.61,0,0,1,7.05,6.71,28.13,28.13,0,0,1,4,10,37.48,37.48,0,0,1,.27,12.34L877,371.6a4.25,4.25,0,0,1-1.06,2.31,2.57,2.57,0,0,1-1.94,1H853.72a1.89,1.89,0,0,1-1.67-1,3.38,3.38,0,0,1-.44-2.31l8.1-56.82c.24-2-.53-3.08-2.29-3.08H792.24c-1.77,0-2.88,1.18-3.35,3.52L781,371.6a4.25,4.25,0,0,1-1.06,2.31,2.55,2.55,0,0,1-1.93,1H745.55a2.09,2.09,0,0,1-1.76-1A2.61,2.61,0,0,1,743.44,371.6Z" transform="translate(-66.74 -102)"/><path class="cls-4" d="M884.2,342.53l7-50.43a34.42,34.42,0,0,1,3.61-11.34,33,33,0,0,1,6.61-8.81,28.85,28.85,0,0,1,8.63-5.62,25,25,0,0,1,9.69-2h83.33a19,19,0,0,1,9.78,2.54,21.89,21.89,0,0,1,7.22,6.93,29.4,29.4,0,0,1,4.14,10.24,35.24,35.24,0,0,1,.18,12.67l-6.34,45.8a46.22,46.22,0,0,1-3.88,12.55,39.79,39.79,0,0,1-7,10.35,32.14,32.14,0,0,1-9.25,6.94,23.16,23.16,0,0,1-10.39,2.53h-82.1a19.07,19.07,0,0,1-9.69-2.53,21.43,21.43,0,0,1-7.31-6.94,28.29,28.29,0,0,1-4.06-10.35A38.88,38.88,0,0,1,884.2,342.53Zm41.76.66h62.36a4.21,4.21,0,0,0,3.17-1.54,7,7,0,0,0,1.76-3.74l3-21.14a5.37,5.37,0,0,0-.62-3.86,3.27,3.27,0,0,0-2.9-1.43H930.54a4.55,4.55,0,0,0-3.35,1.43,6.68,6.68,0,0,0-1.76,3.86l-2.82,21.14a5.25,5.25,0,0,0,.61,3.74A3.06,3.06,0,0,0,926,343.19Z" transform="translate(-66.74 -102)"/><path class="cls-4" d="M1020.21,342.53l7-50.43a34.18,34.18,0,0,1,3.61-11.34,33.16,33.16,0,0,1,6.6-8.81,29,29,0,0,1,8.64-5.62,25,25,0,0,1,9.69-2h83.33a19,19,0,0,1,9.78,2.54,22,22,0,0,1,7.22,6.93,29.4,29.4,0,0,1,4.14,10.24,35.24,35.24,0,0,1,.18,12.67l-6.35,45.8a46.2,46.2,0,0,1-3.87,12.55,39.79,39.79,0,0,1-7,10.35,32.28,32.28,0,0,1-9.25,6.94,23.16,23.16,0,0,1-10.39,2.53h-82.1a19,19,0,0,1-9.69-2.53,21.35,21.35,0,0,1-7.31-6.94,28.29,28.29,0,0,1-4.06-10.35A38.88,38.88,0,0,1,1020.21,342.53Zm41.75.66h62.37a4.21,4.21,0,0,0,3.17-1.54,7,7,0,0,0,1.76-3.74l3-21.14a5.37,5.37,0,0,0-.62-3.86,3.29,3.29,0,0,0-2.91-1.43h-62.19a4.53,4.53,0,0,0-3.34,1.43,6.68,6.68,0,0,0-1.77,3.86l-2.81,21.14a5.2,5.2,0,0,0,.61,3.74A3.06,3.06,0,0,0,1062,343.19Z" transform="translate(-66.74 -102)"/><path class="cls-4" d="M1153.93,369.62l20.43-144.25a6.4,6.4,0,0,1,1.59-3.3,3.76,3.76,0,0,1,2.82-1.32h30a3,3,0,0,1,2.55,1.32,4.14,4.14,0,0,1,.62,3.3l-9.16,64.75a4.46,4.46,0,0,0,.61,3.41,3,3,0,0,0,2.56,1.43h27.84a4,4,0,0,0,3.17-1.76l20.43-26.42a4,4,0,0,1,3.17-1.77h23.26c1.64,0,2.67.92,3.08,2.76a5.89,5.89,0,0,1-1.32,5.17L1249.59,317a5.34,5.34,0,0,0-.88,5.94l23.61,44.27a5.2,5.2,0,0,1-.18,5.06,4.29,4.29,0,0,1-3.87,2.64H1245a2.8,2.8,0,0,1-2.64-1.76l-15-29.51a3.18,3.18,0,0,0-2.82-1.76h-25.36a3.66,3.66,0,0,0-2.82,1.43,6.9,6.9,0,0,0-1.59,3.42l-3.17,22.9A6.65,6.65,0,0,1,1190,373a3.9,3.9,0,0,1-2.91,1.43h-30a3,3,0,0,1-2.56-1.43A4.46,4.46,0,0,1,1153.93,369.62Z" transform="translate(-66.74 -102)"/><path class="cls-4" d="M612.36,522.35l12.69-89.41a40.69,40.69,0,0,1,3.78-12.55,43.41,43.41,0,0,1,7-10.35A31.37,31.37,0,0,1,645,403.1a23.59,23.59,0,0,1,10.57-2.53h82.09a19.14,19.14,0,0,1,9.69,2.53,21.65,21.65,0,0,1,7.32,6.94,28.6,28.6,0,0,1,4,10.35,38.89,38.89,0,0,1,.26,12.55l-12.68,89.41a40.68,40.68,0,0,1-3.79,12.56,42,42,0,0,1-7.05,10.35,32.1,32.1,0,0,1-9.25,6.93,23.17,23.17,0,0,1-10.39,2.54h-82.1a19.08,19.08,0,0,1-9.69-2.54,21.4,21.4,0,0,1-7.31-6.93,28.24,28.24,0,0,1-4-10.35A38.66,38.66,0,0,1,612.36,522.35Zm41.76.66h62.54a4.21,4.21,0,0,0,3.17-1.54,7,7,0,0,0,1.76-3.74l9.16-65a4.65,4.65,0,0,0-.7-3.63,3.36,3.36,0,0,0-2.82-1.43H664.69a4.09,4.09,0,0,0-3.09,1.43,6.8,6.8,0,0,0-1.67,3.63l-9.34,65a5,5,0,0,0,.71,3.74A3.25,3.25,0,0,0,654.12,523Z" transform="translate(-66.74 -102)"/><path class="cls-4" d="M747.14,550.1l11.09-78.4a33.52,33.52,0,0,1,3.62-11.45,32.12,32.12,0,0,1,6.78-8.7,30.5,30.5,0,0,1,8.9-5.61,26,26,0,0,1,10-2h82.63a19.1,19.1,0,0,1,9.69,2.53,21.3,21.3,0,0,1,7.31,7.05,29.23,29.23,0,0,1,4,10.46,38.88,38.88,0,0,1,.26,12.55L881,550.1a6.47,6.47,0,0,1-1.59,3.31,3.76,3.76,0,0,1-2.81,1.32h-18a2.81,2.81,0,0,1-2.47-1.32,4.37,4.37,0,0,1-.53-3.31l7.58-54.39a4.35,4.35,0,0,0-.53-3.2,2.76,2.76,0,0,0-2.47-1.43H796.82a3.66,3.66,0,0,0-2.82,1.43,7,7,0,0,0-1.59,3.2l-7.57,54.39a6.14,6.14,0,0,1-1.68,3.31,3.88,3.88,0,0,1-2.73,1.32h-30.3a2.81,2.81,0,0,1-2.47-1.32A4.41,4.41,0,0,1,747.14,550.1Z" transform="translate(-66.74 -102)"/><path class="cls-4" d="M888.25,522.35l6.87-48.89a40.56,40.56,0,0,1,3.35-11.67,31.84,31.84,0,0,1,6.17-9,29.25,29.25,0,0,1,8.36-5.94,22.61,22.61,0,0,1,9.78-2.2H1007a21,21,0,0,1,16.92,8.36,25.44,25.44,0,0,1,4.31,9.58,33.68,33.68,0,0,1,.44,12.23l-6.87,49.55q-.7,3.52-3.34,3.52h-92c-.94,0-1.53.7-1.76,2.09S925,532,926.13,532h78.93a2.23,2.23,0,0,1,1.93,1,3,3,0,0,1,.36,2.53l-2.12,15.63q-.71,3.52-3.34,3.53H909.57a19,19,0,0,1-9.78-2.54,21.37,21.37,0,0,1-7.22-7,30.54,30.54,0,0,1-4.14-10.35A33.87,33.87,0,0,1,888.25,522.35ZM931.94,499h65.19a2.54,2.54,0,0,0,2.2-1.1,6.22,6.22,0,0,0,1.06-2.53,4,4,0,0,0-.27-2.54,2,2,0,0,0-1.93-1.1H933a2.81,2.81,0,0,0-2.29,1.1,5,5,0,0,0-1.06,2.54,4.47,4.47,0,0,0,.35,2.53A2,2,0,0,0,931.94,499Z" transform="translate(-66.74 -102)"/><path class="cls-4" d="M1061.78,442.41h79.64a21,21,0,0,1,16.91,8.37,26.28,26.28,0,0,1,4.4,9.47,31.63,31.63,0,0,1,.53,12.11l-2.82,20.48c-.23,1.91-1.17,2.87-2.82,2.87h-20.79a1.78,1.78,0,0,1-1.49-.88,2.15,2.15,0,0,1-.27-2l.36-3.52a2.16,2.16,0,0,0-.27-2,1.93,1.93,0,0,0-1.67-.88h-59.73q-.88,0-1,1c-.12.66,0,1.07.53,1.21l63.24,10.57a17.75,17.75,0,0,1,10.93,5.73,24.33,24.33,0,0,1,5.46,10.79,33.24,33.24,0,0,1,.26,13,35.61,35.61,0,0,1-4.67,12.66,29.5,29.5,0,0,1-9.25,9.58,24,24,0,0,1-13.47,3.75h-82.1a20.57,20.57,0,0,1-9.34-2.21,20.28,20.28,0,0,1-7.4-6.27,27.48,27.48,0,0,1-4.4-9.58,31.43,31.43,0,0,1-.53-12.11l.35-2c.23-1.9,1.12-2.86,2.64-2.86h33.12c1.53,0,2.18,1,1.94,2.86l-1.06,6.61c-.23,1.91.42,2.86,1.94,2.86h58.85a1.1,1.1,0,0,0,1.14-.88.77.77,0,0,0-.62-1.1l-73.46-18.28a21.11,21.11,0,0,1-12.33-7.92,30.7,30.7,0,0,1-5.64-13.66,42.59,42.59,0,0,1,.62-16.07,49.79,49.79,0,0,1,6.16-15.42,38.37,38.37,0,0,1,11-11.67A26.06,26.06,0,0,1,1061.78,442.41Z" transform="translate(-66.74 -102)"/><path class="cls-4" d="M609.44,345.33,611,334.54q.36-3.53,3.18-3.53h19.9q2.65,0,2.29,3.53l-1,6.82c-.24,1.47,0,2.21.88,2.21h68.53a1,1,0,0,0,1.06-.77c.11-.52.23-1.07.35-1.66.12-1,.27-2.16.44-3.41a19.5,19.5,0,0,0,.18-3.74,8.36,8.36,0,0,0-.8-3.31,5.24,5.24,0,0,0-2.46-2.31l-67.3-31.49a24.63,24.63,0,0,1-7.05-6.17,33.48,33.48,0,0,1-5.11-9,45.68,45.68,0,0,1-2.64-10.79,41.45,41.45,0,0,1,.18-11.45l.7-5.5a46.06,46.06,0,0,1,3.88-12.78,40.1,40.1,0,0,1,7-10.35,32.61,32.61,0,0,1,9.25-6.93A23.54,23.54,0,0,1,653,221.34H734.7a20.43,20.43,0,0,1,9.43,2.21,22.06,22.06,0,0,1,7.4,6.16,24.57,24.57,0,0,1,4.4,9.47,33,33,0,0,1,.44,12.11l-3.7,26.21a4.31,4.31,0,0,1-1,2.31,2.75,2.75,0,0,1-2.12,1H729.59a2,2,0,0,1-1.85-1,3.38,3.38,0,0,1-.44-2.31l.88-5.73c.24-2.2-.53-3.3-2.29-3.3H679.56q-2.29,0-3,2.64c-.47,1.77-.06,3,1.24,3.75l52,24.22a22.05,22.05,0,0,1,7.05,6.17,39.94,39.94,0,0,1,5,8.92,41.44,41.44,0,0,1,2.73,10.68,43.12,43.12,0,0,1-.18,11.67l-.88,6.39a44.78,44.78,0,0,1-3.88,12.66,41,41,0,0,1-7,10.24,33,33,0,0,1-9.17,6.94A22.93,22.93,0,0,1,713,375.28H631.11a20.92,20.92,0,0,1-16.74-8.37,26.28,26.28,0,0,1-4.4-9.47A31.63,31.63,0,0,1,609.44,345.33Z" transform="translate(-66.74 -102)"/><path class="cls-4" d="M743.33,372l20.79-147.54a4,4,0,0,1,1.06-2.43,2.7,2.7,0,0,1,1.94-.88h32.41a2.18,2.18,0,0,1,1.76.88,2.77,2.77,0,0,1,.36,2.43l-5.29,37.43c-.23,2.06.47,3.09,2.12,3.09l68.18.22a18.84,18.84,0,0,1,9.51,2.42,20.64,20.64,0,0,1,7.05,6.72,28.16,28.16,0,0,1,4,10,37.69,37.69,0,0,1,.27,12.33L876.87,372a4.23,4.23,0,0,1-1,2.32,2.59,2.59,0,0,1-1.94,1H853.62a1.88,1.88,0,0,1-1.67-1,3.4,3.4,0,0,1-.45-2.32l8.11-56.81q.35-3.09-2.29-3.09H792.13c-1.76,0-2.88,1.18-3.34,3.53L780.86,372a4.24,4.24,0,0,1-1.06,2.32,2.57,2.57,0,0,1-1.94,1H745.45a2.1,2.1,0,0,1-1.77-1A2.66,2.66,0,0,1,743.33,372Z" transform="translate(-66.74 -102)"/><path class="cls-4" d="M884.1,342.91l7-50.43a34.48,34.48,0,0,1,3.62-11.35,33.49,33.49,0,0,1,6.6-8.81,28.67,28.67,0,0,1,8.64-5.61,25,25,0,0,1,9.69-2H1003a18.89,18.89,0,0,1,9.77,2.53,21.85,21.85,0,0,1,7.23,6.94,29.59,29.59,0,0,1,4.14,10.24,35,35,0,0,1,.17,12.66L1018,342.91a46.42,46.42,0,0,1-3.87,12.55,40.13,40.13,0,0,1-7,10.35,32.46,32.46,0,0,1-9.25,6.94,23.16,23.16,0,0,1-10.4,2.53H905.42a19,19,0,0,1-9.69-2.53,21.56,21.56,0,0,1-7.32-6.94,28.42,28.42,0,0,1-4-10.35A38.89,38.89,0,0,1,884.1,342.91Zm41.75.66h62.37a4.23,4.23,0,0,0,3.17-1.55,7.06,7.06,0,0,0,1.76-3.74l3-21.14a5.39,5.39,0,0,0-.62-3.85,3.28,3.28,0,0,0-2.91-1.44H930.43a4.54,4.54,0,0,0-3.35,1.44,6.71,6.71,0,0,0-1.76,3.85l-2.82,21.14a5.25,5.25,0,0,0,.62,3.74A3.06,3.06,0,0,0,925.85,343.57Z" transform="translate(-66.74 -102)"/><path class="cls-4" d="M1020.11,342.91l7-50.43a34.71,34.71,0,0,1,3.61-11.35,33.52,33.52,0,0,1,6.61-8.81,28.62,28.62,0,0,1,8.63-5.61,25,25,0,0,1,9.69-2H1139a19,19,0,0,1,9.78,2.53,21.85,21.85,0,0,1,7.23,6.94,29.78,29.78,0,0,1,4.14,10.24,35,35,0,0,1,.17,12.66L1154,342.91a46.44,46.44,0,0,1-3.88,12.55,40.36,40.36,0,0,1-6.95,10.35,32.6,32.6,0,0,1-9.25,6.94,23.2,23.2,0,0,1-10.4,2.53h-82.1a19.1,19.1,0,0,1-9.69-2.53,21.62,21.62,0,0,1-7.31-6.94,28.24,28.24,0,0,1-4.05-10.35A38.61,38.61,0,0,1,1020.11,342.91Zm41.75.66h62.37a4.23,4.23,0,0,0,3.17-1.55,7.06,7.06,0,0,0,1.76-3.74l3-21.14a5.34,5.34,0,0,0-.61-3.85,3.28,3.28,0,0,0-2.91-1.44h-62.19a4.54,4.54,0,0,0-3.35,1.44,6.65,6.65,0,0,0-1.76,3.85l-2.82,21.14a5.25,5.25,0,0,0,.62,3.74A3,3,0,0,0,1061.86,343.57Z" transform="translate(-66.74 -102)"/><path class="cls-4" d="M1153.82,370l20.44-144.24a6.31,6.31,0,0,1,1.59-3.31,3.76,3.76,0,0,1,2.82-1.32h29.95a3,3,0,0,1,2.55,1.32,4.21,4.21,0,0,1,.62,3.31l-9.16,64.74a4.45,4.45,0,0,0,.61,3.42,3,3,0,0,0,2.56,1.43h27.83a4.06,4.06,0,0,0,3.17-1.76l20.44-26.43a4.06,4.06,0,0,1,3.17-1.76h23.26c1.64,0,2.67.92,3.08,2.75a5.91,5.91,0,0,1-1.32,5.18l-35.94,44a5.35,5.35,0,0,0-.88,5.95l23.6,44.26a5.19,5.19,0,0,1-.17,5.07,4.29,4.29,0,0,1-3.88,2.64h-23.25a2.83,2.83,0,0,1-2.65-1.76l-15-29.51a3.19,3.19,0,0,0-2.82-1.76H1199.1a3.63,3.63,0,0,0-2.82,1.43,6.94,6.94,0,0,0-1.58,3.41l-3.17,22.9a6.74,6.74,0,0,1-1.68,3.42,3.92,3.92,0,0,1-2.9,1.43h-30a3,3,0,0,1-2.56-1.43A4.5,4.5,0,0,1,1153.82,370Z" transform="translate(-66.74 -102)"/><path class="cls-4" d="M612.26,522.73l12.68-89.41a40.54,40.54,0,0,1,3.79-12.55,43,43,0,0,1,7-10.35,31.15,31.15,0,0,1,9.16-6.94A23.52,23.52,0,0,1,655.42,401h82.1a19.1,19.1,0,0,1,9.69,2.53,21.62,21.62,0,0,1,7.31,6.94,28.1,28.1,0,0,1,4.05,10.35,38.87,38.87,0,0,1,.27,12.55l-12.69,89.41a40.88,40.88,0,0,1-3.78,12.55,41.6,41.6,0,0,1-7,10.35,32.46,32.46,0,0,1-9.25,6.94,23.16,23.16,0,0,1-10.4,2.53H633.58a19,19,0,0,1-9.69-2.53,21.56,21.56,0,0,1-7.32-6.94,28.45,28.45,0,0,1-4.05-10.35A38.89,38.89,0,0,1,612.26,522.73Zm41.75.66h62.54a4.22,4.22,0,0,0,3.18-1.54,7.12,7.12,0,0,0,1.76-3.75l9.16-65a4.71,4.71,0,0,0-.7-3.64,3.36,3.36,0,0,0-2.82-1.43H664.58a4.09,4.09,0,0,0-3.08,1.43,6.8,6.8,0,0,0-1.67,3.64l-9.34,65a5,5,0,0,0,.7,3.75A3.27,3.27,0,0,0,654,523.39Z" transform="translate(-66.74 -102)"/><path class="cls-4" d="M747,550.48l11.1-78.4a33.59,33.59,0,0,1,3.61-11.45,31.65,31.65,0,0,1,6.79-8.7,30.41,30.41,0,0,1,8.89-5.62,26.1,26.1,0,0,1,10-2H870a19.14,19.14,0,0,1,9.69,2.53,21.13,21.13,0,0,1,7.31,7.05,29.5,29.5,0,0,1,4.06,10.46,38.89,38.89,0,0,1,.26,12.55l-10.39,73.56a6.4,6.4,0,0,1-1.59,3.3,3.76,3.76,0,0,1-2.82,1.32h-18a2.79,2.79,0,0,1-2.46-1.32,4.34,4.34,0,0,1-.53-3.3l7.57-54.4a4.24,4.24,0,0,0-.53-3.19,2.72,2.72,0,0,0-2.46-1.43H796.71a3.62,3.62,0,0,0-2.81,1.43,6.79,6.79,0,0,0-1.59,3.19l-7.58,54.4a6,6,0,0,1-1.67,3.3,3.88,3.88,0,0,1-2.73,1.32H750a2.81,2.81,0,0,1-2.47-1.32A4.34,4.34,0,0,1,747,550.48Z" transform="translate(-66.74 -102)"/><path class="cls-4" d="M888.15,522.73,895,473.84a40.07,40.07,0,0,1,3.35-11.67,31.88,31.88,0,0,1,6.16-9,29.27,29.27,0,0,1,8.37-5.95,22.76,22.76,0,0,1,9.78-2.2h84.21a21,21,0,0,1,9.51,2.2,20.82,20.82,0,0,1,7.4,6.17,25.16,25.16,0,0,1,4.32,9.58,33.62,33.62,0,0,1,.44,12.22l-6.87,49.55q-.71,3.52-3.35,3.52h-92c-.94,0-1.53.7-1.76,2.1s.23,2.09,1.41,2.09H1005a2.26,2.26,0,0,1,1.94,1,3,3,0,0,1,.35,2.53l-2.11,15.64q-.71,3.52-3.35,3.52H909.46a18.89,18.89,0,0,1-9.77-2.53,21.52,21.52,0,0,1-7.23-7.05,30.75,30.75,0,0,1-4.14-10.35A33.83,33.83,0,0,1,888.15,522.73Zm43.69-23.35H997a2.56,2.56,0,0,0,2.2-1.1,6,6,0,0,0,1-2.53,4,4,0,0,0-.26-2.53,2,2,0,0,0-1.94-1.1H932.9a2.8,2.8,0,0,0-2.29,1.1,5,5,0,0,0-1.06,2.53,4.46,4.46,0,0,0,.35,2.53A2,2,0,0,0,931.84,499.38Z" transform="translate(-66.74 -102)"/><path class="cls-4" d="M1061.68,442.79h79.63a20.93,20.93,0,0,1,16.92,8.37,26.45,26.45,0,0,1,4.4,9.47,31.62,31.62,0,0,1,.53,12.11l-2.82,20.48c-.24,1.91-1.18,2.86-2.82,2.86h-20.79a1.79,1.79,0,0,1-1.5-.88,2.12,2.12,0,0,1-.26-2l.35-3.52a2.15,2.15,0,0,0-.26-2,2,2,0,0,0-1.68-.88h-59.72c-.59,0-.94.33-1.06,1s.06,1.07.53,1.21l63.25,10.57a17.74,17.74,0,0,1,10.92,5.73,24.33,24.33,0,0,1,5.46,10.79,33.24,33.24,0,0,1,.27,13,35.78,35.78,0,0,1-4.67,12.67,29.6,29.6,0,0,1-9.25,9.58,24.12,24.12,0,0,1-13.48,3.74h-82.1a20.62,20.62,0,0,1-16.73-8.48,27.41,27.41,0,0,1-4.41-9.58,31.83,31.83,0,0,1-.53-12.11l.36-2c.23-1.91,1.11-2.87,2.64-2.87H1058c1.53,0,2.17,1,1.94,2.87l-1.06,6.6c-.23,1.91.41,2.87,1.94,2.87h58.84a1.11,1.11,0,0,0,1.15-.88.77.77,0,0,0-.62-1.1l-73.46-18.28a21.18,21.18,0,0,1-12.34-7.93,30.72,30.72,0,0,1-5.63-13.65,42.63,42.63,0,0,1,.61-16.08,49.81,49.81,0,0,1,6.17-15.42,38.36,38.36,0,0,1,11-11.67A26,26,0,0,1,1061.68,442.79Z" transform="translate(-66.74 -102)"/><circle class="cls-5" cx="283.72" cy="284.82" r="87.48"/></svg>