<svg id="Calque_1" data-name="Calque 1" xmlns="http://www.w3.org/2000/svg" xmlns:xlink="http://www.w3.org/1999/xlink" viewBox="0 0 480.35 480.35"><defs><style>.cls-1{fill:none;stroke-linecap:round;stroke-width:15px;stroke:url(#Dégradé_sans_nom_82);}</style><linearGradient id="Dégradé_sans_nom_82" x1="7.5" y1="240.18" x2="472.85" y2="240.18" gradientUnits="userSpaceOnUse"><stop offset="0.21" stop-color="#ffd620"/><stop offset="0.73" stop-color="#ffb06b"/></linearGradient></defs><circle class="cls-1" cx="240.18" cy="240.18" r="232.68"/><path class="cls-1" d="M358.48,159.12a230.86,230.86,0,1,1-90.18,18.2,230.21,230.21,0,0,1,90.18-18.2m0-1C230,158.12,125.8,262.29,125.8,390.79S230,623.47,358.48,623.47,591.15,519.3,591.15,390.79,487,158.12,358.48,158.12Z" transform="translate(-118.3 -150.62)"/><path class="cls-1" d="M477.12,236a194.78,194.78,0,0,1,75.35,134.7" transform="translate(-118.3 -150.62)"/><path class="cls-1" d="M358.48,585.8c-107.7,0-195-87.3-195-195" transform="translate(-118.3 -150.62)"/><path class="cls-1" d="M470.08,270.61a178.36,178.36,0,0,1,44.26,76.19" transform="translate(-118.3 -150.62)"/><path class="cls-1" d="M190.19,400.39A178.66,178.66,0,0,0,352.65,556.58" transform="translate(-118.3 -150.62)"/><path class="cls-1" d="M462.48,244.37" transform="translate(-118.3 -150.62)"/><path class="cls-1" d="M358.48,297.85a92.95,92.95,0,1,0,92.95,92.94A92.94,92.94,0,0,0,358.48,297.85Zm0,106.92a15.19,15.19,0,1,1,15.18-15.19A15.19,15.19,0,0,1,358.48,404.77Z" transform="translate(-118.3 -150.62)"/></svg>